<svg xmlns="http://www.w3.org/2000/svg" width="33" height="33" viewBox="0 0 40 40" fill="none">
<path d="M9.99096 7.72964C11.191 8.52964 11.1576 10.063 10.991 10.7296C10.3243 10.7296 8.49096 10.4296 6.49096 9.22964C3.99096 7.72964 3.99096 5.22964 4.99096 6.22964C5.99096 7.22964 8.49096 6.72964 9.99096 7.72964Z" fill="#00BA7F"/>
<path fill-rule="evenodd" clip-rule="evenodd" d="M22.866 31C30.3218 31 36.366 24.9558 36.366 17.5C36.366 10.0442 30.3218 4 22.866 4C17.8855 4 13.535 6.697 11.1951 10.7102C10.8945 10.0199 10.2672 9.18045 9.18392 9.02898C8.30905 8.90664 7.37424 9.21301 6.49122 9.5024C5.57221 9.80359 4.7093 10.0864 4.02848 9.84836C2.6935 9.38165 3.77883 11.6338 6.68215 11.8997C8.44202 12.0609 9.89138 11.7982 10.7517 11.5355C9.86445 13.3341 9.36598 15.3588 9.36598 17.5C9.36598 24.9558 15.4101 31 22.866 31Z" fill="#00D894"/>
<path d="M10 18.7751C10 15.24 13.3326 12.6531 16.7572 13.5298L19.8817 14.3297C21.5995 14.7695 23.4005 14.7695 25.1183 14.3297L28.2428 13.5298C31.6674 12.6531 35 15.24 35 18.7751C35 22.2936 32.4636 25.2996 28.9953 25.8915L24.6029 26.6411C23.211 26.8787 21.789 26.8787 20.3971 26.6411L16.0047 25.8915C12.5364 25.2996 10 22.2936 10 18.7751Z" fill="white"/>
<rect width="2" height="11.9986" rx="1" transform="matrix(-0.00237127 -0.999997 -0.999997 0.00237127 47.7319 26)" fill="white"/>
<rect width="1.38663" height="5.05457" rx="0.693315" transform="matrix(0.862928 -0.505328 0.698438 0.715671 15.3853 19.3826)" fill="#1E283D"/>
<rect width="1.37876" height="5.16064" rx="0.689382" transform="matrix(-0.85121 -0.524826 0.716642 -0.697442 16.5645 20.3228)" fill="#1E283D"/>
<rect width="1.38663" height="5.05457" rx="0.693315" transform="matrix(-0.862928 0.505328 -0.698437 -0.715671 29.2437 19.6174)" fill="#1E283D"/>
<rect width="1.37876" height="5.16064" rx="0.689382" transform="matrix(0.85121 0.524826 -0.716642 0.697441 28.0645 18.6772)" fill="#1E283D"/>
<rect width="2" height="12" rx="1" transform="matrix(-0.866025 0.5 0.5 0.866025 1.73193 13)" fill="white"/>
<path d="M15.3837 14.9892C15.2541 14.5947 14.8261 14.3755 14.4529 14.5577C13.6418 14.9538 12.9369 15.5454 12.4045 16.2839C11.7249 17.2267 11.3614 18.3606 11.3663 19.5228C11.3711 20.685 11.7439 21.8158 12.4313 22.7529C12.9697 23.487 13.6795 24.0727 14.4939 24.4621C14.8685 24.6412 15.2947 24.4184 15.4211 24.0229C15.5475 23.6274 15.3243 23.2102 14.9594 23.0121C14.4442 22.7324 13.9941 22.3412 13.6438 21.8636C13.1443 21.1826 12.8734 20.361 12.8699 19.5165C12.8664 18.6721 13.1305 17.8482 13.6243 17.1632C13.9707 16.6827 14.4176 16.2878 14.9304 16.0038C15.2937 15.8027 15.5134 15.3837 15.3837 14.9892Z" fill="#1E283D"/>
<path d="M29.1026 24.1141C29.2059 24.4999 29.6051 24.7332 29.9739 24.5801C30.8168 24.2304 31.5631 23.6749 32.1418 22.9596C32.8729 22.0562 33.2989 20.9443 33.3589 19.7837C33.4188 18.623 33.1096 17.4732 32.4755 16.4992C31.9735 15.7282 31.2884 15.0987 30.4861 14.664C30.1349 14.4738 29.7138 14.6647 29.5713 15.0378C29.4287 15.4109 29.6203 15.8237 29.9621 16.0302C30.4825 16.3445 30.9283 16.7736 31.2634 17.2883C31.7308 18.0062 31.9587 18.8536 31.9145 19.7091C31.8703 20.5645 31.5563 21.384 31.0175 22.0499C30.6312 22.5273 30.1436 22.9082 29.5936 23.1673C29.2322 23.3374 28.9992 23.7283 29.1026 24.1141Z" fill="#1E283D"/>
</svg>